<?xml version="1.0" encoding="UTF-8" standalone="no"?>
<svg
   xmlns:osb="http://www.openswatchbook.org/uri/2009/osb"
   xmlns:dc="http://purl.org/dc/elements/1.1/"
   xmlns:cc="http://creativecommons.org/ns#"
   xmlns:rdf="http://www.w3.org/1999/02/22-rdf-syntax-ns#"
   xmlns:svg="http://www.w3.org/2000/svg"
   xmlns="http://www.w3.org/2000/svg"
   xmlns:sodipodi="http://sodipodi.sourceforge.net/DTD/sodipodi-0.dtd"
   xmlns:inkscape="http://www.inkscape.org/namespaces/inkscape"
   height="179.2"
   width="179.2"
   id="svg3085"
   version="1.1"
   inkscape:version="0.48.4 r9939"
   sodipodi:docname="user.svg">
  <metadata
     id="metadata3093">
    <rdf:RDF>
      <cc:Work
         rdf:about="">
        <dc:format>image/svg+xml</dc:format>
        <dc:type
           rdf:resource="http://purl.org/dc/dcmitype/StillImage" />
      </cc:Work>
    </rdf:RDF>
  </metadata>
  <defs
     id="defs3091">
    <linearGradient
       id="linearGradient3867"
       osb:paint="solid">
      <stop
         style="stop-color:#000000;stop-opacity:1;"
         offset="0"
         id="stop3869" />
    </linearGradient>
  </defs>
  <sodipodi:namedview
     pagecolor="#ffffff"
     bordercolor="#666666"
     borderopacity="1"
     objecttolerance="10"
     gridtolerance="10"
     guidetolerance="10"
     inkscape:pageopacity="0"
     inkscape:pageshadow="2"
     inkscape:window-width="1366"
     inkscape:window-height="702"
     id="namedview3089"
     showgrid="false"
     inkscape:snap-grids="false"
     inkscape:zoom="2.8069197"
     inkscape:cx="87.166922"
     inkscape:cy="89.599998"
     inkscape:window-x="0"
     inkscape:window-y="27"
     inkscape:window-maximized="1"
     inkscape:current-layer="svg3085" />
  <path
     style="fill:#000000;fill-opacity:0.09606987000000000;stroke:none;stroke-width:15.80000019000000044;stroke-miterlimit:4;stroke-opacity:0.17692309000000001;stroke-dasharray:none"
     d="M 0 0 L 0 179.90625 L 179.5625 179.90625 L 179.5625 0 L 0 0 z M 89.375 12.03125 C 99.974999 12.03125 109.03125 15.78125 116.53125 23.28125 C 124.03125 30.78125 127.78125 39.8375 127.78125 50.4375 C 127.78125 61.0375 124.03125 70.09375 116.53125 77.59375 C 109.03125 85.09375 99.974999 88.84375 89.375 88.84375 C 78.775 88.84375 69.71875 85.09375 62.21875 77.59375 C 54.71875 70.09375 50.96875 61.0375 50.96875 50.4375 C 50.96875 39.8375 54.71875 30.78125 62.21875 23.28125 C 69.71875 15.78125 78.775 12.03125 89.375 12.03125 z M 53.59375 82.4375 C 54.19375 82.4375 55.58125 83.160417 57.78125 84.59375 C 59.98125 86.027083 62.452083 87.639583 65.21875 89.40625 C 67.985417 91.172917 71.597917 92.754167 76.03125 94.1875 C 80.464583 95.620833 84.908333 96.34375 89.375 96.34375 C 93.841667 96.34375 98.285417 95.620833 102.71875 94.1875 C 107.15208 92.754167 110.76458 91.172917 113.53125 89.40625 C 116.29792 87.639583 118.76875 86.027083 120.96875 84.59375 C 123.16875 83.160417 124.5875 82.4375 125.1875 82.4375 C 129.25417 82.4375 132.97708 83.104167 136.34375 84.4375 C 139.71042 85.770833 142.54167 87.547917 144.875 89.78125 C 147.20833 92.014583 149.29375 94.739583 151.09375 97.90625 C 152.89375 101.07292 154.30833 104.32292 155.375 107.65625 C 156.44167 110.98958 157.33125 114.6 158.03125 118.5 C 158.73125 122.4 159.20417 126.03958 159.4375 129.40625 C 159.67083 132.77292 159.78125 136.21667 159.78125 139.75 C 159.78125 147.75 157.33542 154.05417 152.46875 158.6875 C 147.60208 163.32083 141.16042 165.65625 133.09375 165.65625 L 45.6875 165.65625 C 37.620833 165.65625 31.147917 163.32083 26.28125 158.6875 C 21.414583 154.05417 18.96875 147.75 18.96875 139.75 C 18.96875 136.21667 19.110417 132.77292 19.34375 129.40625 C 19.577083 126.03958 20.01875 122.4 20.71875 118.5 C 21.41875 114.6 22.308333 110.98958 23.375 107.65625 C 24.441667 104.32292 25.8875 101.07292 27.6875 97.90625 C 29.4875 94.739583 31.541667 92.014583 33.875 89.78125 C 36.208333 87.547917 39.070833 85.770833 42.4375 84.4375 C 45.804167 83.104167 49.527083 82.4375 53.59375 82.4375 z "
     id="rect3097" />
</svg>
